<?xml version="1.0" standalone="no"?>
<!DOCTYPE svg PUBLIC "-//W3C//DTD SVG 20010904//EN"
 "http://www.w3.org/TR/2001/REC-SVG-20010904/DTD/svg10.dtd">
<svg version="1.0" xmlns="http://www.w3.org/2000/svg"
 width="300.000000pt" height="100.000000pt" viewBox="0 0 500.000000 500.000000"
 preserveAspectRatio="xMidYMid meet">

<g transform="translate(0.000000,500.000000) scale(0.100000,-0.100000)"
fill="#000000" stroke="none">
<path d="M1120 2485 l0 -415 315 0 315 0 0 415 0 415 -315 0 -315 0 0 -415z
m600 0 l0 -385 -290 0 -290 0 0 385 0 385 290 0 290 0 0 -385z"/>
<path d="M1170 2755 l0 -75 260 0 260 0 0 75 0 75 -260 0 -260 0 0 -75z m275
45 c0 -7 -6 -15 -12 -17 -8 -3 -13 4 -13 17 0 13 5 20 13 18 6 -3 12 -11 12
-18z"/>
<path d="M1170 2575 l0 -75 130 0 130 0 0 75 0 75 -130 0 -130 0 0 -75z m145
45 c0 -7 -6 -15 -12 -17 -8 -3 -13 4 -13 17 0 13 5 20 13 18 6 -3 12 -11 12
-18z"/>
<path d="M1430 2390 l0 -80 130 0 130 0 0 80 0 80 -130 0 -130 0 0 -80z m148
48 c-6 -18 -28 -21 -28 -4 0 9 7 16 16 16 9 0 14 -5 12 -12z"/>
<path d="M1170 2210 l0 -80 260 0 260 0 0 80 0 80 -260 0 -260 0 0 -80z m278
48 c-6 -18 -28 -21 -28 -4 0 9 7 16 16 16 9 0 14 -5 12 -12z"/>
<path d="M1860 2661 l0 -161 25 0 25 0 1 108 c0 120 9 114 29 -20 13 -86 14
-88 41 -88 31 0 31 1 51 130 l13 85 3 -107 3 -108 29 0 30 0 0 160 0 160 -49
0 c-56 0 -55 2 -66 -113 -4 -37 -10 -65 -13 -62 -3 3 -11 42 -16 88 l-11 82
-47 3 -48 3 0 -160z"/>
<path d="M2132 2681 c3 -120 6 -142 22 -160 24 -27 76 -28 107 -2 22 18 24 26
27 160 l4 141 -31 0 -31 0 0 -114 c0 -122 -4 -146 -26 -146 -11 0 -14 26 -14
130 l0 130 -31 0 -31 0 4 -139z"/>
<path d="M2310 2660 l0 -160 65 0 c62 0 65 1 65 24 0 21 -6 25 -32 28 l-33 3
-3 133 -3 132 -29 0 -30 0 0 -160z"/>
<path d="M2450 2790 c0 -23 4 -30 20 -30 19 0 20 -7 20 -130 l0 -130 30 0 30
0 0 130 c0 123 1 130 20 130 16 0 20 7 20 30 l0 30 -70 0 -70 0 0 -30z"/>
<path d="M2600 2660 l0 -160 30 0 30 0 0 160 0 160 -30 0 -30 0 0 -160z"/>
<path d="M2690 2660 l0 -160 30 0 30 0 0 75 c0 43 4 75 10 75 6 0 10 -32 10
-75 l0 -75 30 0 c25 0 30 4 36 36 8 44 -1 117 -15 122 -7 2 -6 11 4 25 19 28
19 87 -1 115 -13 19 -24 22 -75 22 l-59 0 0 -160z m88 73 c-4 -39 -28 -42 -28
-4 0 21 5 31 16 31 11 0 14 -8 12 -27z"/>
<path d="M2860 2660 l0 -160 65 0 65 0 0 30 c0 27 -3 30 -30 30 -28 0 -30 2
-30 40 0 38 2 40 31 40 27 0 30 3 27 28 -2 21 -9 28 -30 30 -24 3 -28 8 -28
33 0 26 3 29 30 29 27 0 30 3 30 30 l0 30 -65 0 -65 0 0 -160z"/>
<path d="M3020 2660 l0 -160 30 0 30 0 1 68 c1 74 3 73 19 -10 11 -55 13 -58
41 -58 l29 0 0 160 0 160 -30 0 -30 0 -1 -67 c-1 -75 -3 -74 -19 10 -11 54
-13 57 -41 57 l-29 0 0 -160z"/>
<path d="M3190 2790 c0 -23 4 -30 20 -30 19 0 20 -7 20 -130 l0 -130 30 0 30
0 0 130 c0 123 1 130 20 130 16 0 20 7 20 30 l0 30 -70 0 -70 0 0 -30z"/>
<path d="M3366 2788 c-6 -38 -26 -243 -26 -270 0 -13 8 -18 30 -18 25 0 30 4
30 25 0 18 5 25 19 25 12 0 21 -9 25 -25 5 -18 13 -25 31 -25 23 0 25 4 24 43
-1 23 -6 94 -13 157 l-11 115 -52 3 c-52 3 -52 3 -57 -30z m64 -95 c0 -27 3
-58 6 -70 5 -17 2 -23 -10 -23 -13 0 -16 12 -16 70 0 40 4 70 10 70 6 0 10
-21 10 -47z"/>
<path d="M3530 2660 l0 -160 60 0 c57 0 60 1 60 25 0 21 -5 25 -30 25 l-30 0
0 135 0 135 -30 0 -30 0 0 -160z"/>
<path d="M1883 2320 c-15 -6 -23 -18 -23 -33 0 -28 13 -40 55 -54 37 -12 44
-38 15 -53 -17 -9 -26 -8 -46 5 -13 8 -24 12 -24 7 0 -16 25 -32 50 -32 38 0
63 22 58 51 -2 18 -13 27 -46 38 -35 11 -43 17 -40 35 3 24 41 34 64 16 9 -9
14 -9 14 -2 0 11 -32 33 -47 31 -4 0 -18 -4 -30 -9z"/>
<path d="M2552 2320 c-43 -18 -55 -91 -21 -134 35 -45 109 -27 123 30 10 38
-10 89 -40 103 -29 13 -31 13 -62 1z m72 -32 c31 -43 15 -99 -31 -113 -50 -14
-85 74 -46 117 22 25 59 23 77 -4z"/>
<path d="M3600 2323 c-35 -13 -50 -37 -50 -80 0 -78 74 -114 119 -57 32 40 27
54 -16 53 -31 -2 -33 -3 -10 -6 34 -5 35 -27 2 -49 -23 -15 -27 -15 -50 0 -31
21 -41 57 -23 93 16 33 57 42 82 17 9 -9 20 -13 23 -10 17 17 -48 49 -77 39z"/>
<path d="M2203 2313 c27 -4 27 -5 27 -79 0 -43 4 -74 10 -74 6 0 10 31 10 74
0 74 0 75 28 79 15 2 -2 4 -38 4 -36 0 -53 -2 -37 -4z"/>
<path d="M2880 2240 c0 -47 4 -80 10 -80 6 0 10 16 10 35 0 24 5 35 14 35 8 0
24 -16 36 -35 12 -19 26 -35 31 -35 11 0 4 16 -19 43 -14 16 -14 19 6 33 24
17 29 53 10 72 -7 7 -31 12 -55 12 l-43 0 0 -80z m88 41 c4 -26 -12 -41 -45
-41 -20 0 -23 5 -23 36 0 34 1 35 33 32 25 -2 33 -8 35 -27z"/>
<path d="M3249 2293 c-56 -146 -52 -133 -40 -133 5 0 13 9 16 20 5 16 15 20
47 20 31 0 41 -4 45 -20 5 -19 23 -29 23 -12 -2 22 -57 146 -67 149 -7 3 -18
-8 -24 -24z m50 -65 c1 -5 -12 -8 -29 -8 -35 0 -34 -3 -14 46 l17 39 13 -35
c7 -19 13 -38 13 -42z"/>
<path d="M3910 2240 l0 -80 50 0 c28 0 50 5 50 10 0 6 -18 10 -40 10 -38 0
-40 2 -40 29 0 28 3 30 43 34 l42 4 -42 1 c-40 2 -43 4 -43 31 0 28 3 30 43
34 40 3 40 4 -10 5 l-53 2 0 -80z"/>
</g>
</svg>
